<?xml version="1.0" encoding="utf-8"?>
<svg viewBox="0 0 500 500" xmlns="http://www.w3.org/2000/svg" xmlns:bx="https://boxy-svg.com">
  <g id="Batman.jpg" transform="matrix(0.632674, 0, 0, 0.599382, -0.576679, 47.87048)" style="">
    <path style="fill: rgb(255, 255, 255);" d="M 234.066 68.513 C 228.165 70.498 221.141 72.518 218.459 73.003 C 204.036 75.605 155.23 94.686 130.665 107.326 C 92.249 127.092 61.525 151.492 33.41 184.563 C 25.594 193.756 11.82 220.451 6.619 236.484 C 0.801 254.418 1.261 295.24 7.486 313.416 C 14.413 333.645 24.233 350.888 36.051 363.577 C 41.882 369.839 46.68 375.527 46.713 376.217 C 46.838 378.853 83.593 409.503 100.862 421.373 C 110.801 428.204 127.06 437.725 136.993 442.529 C 146.925 447.334 156.673 452.115 158.656 453.155 C 164.53 456.236 164.131 454.176 156.712 443.125 C 142.82 422.433 136.798 395.452 142.362 378.832 C 147.226 364.305 168.591 355.152 189.725 358.542 C 208.402 361.539 225.547 371.666 243.369 390.227 C 258.259 405.734 263.427 412.548 266.436 420.641 C 268.478 426.131 269.882 424.634 275.484 410.984 C 283.83 390.652 299.113 377.781 314.782 377.889 C 334.962 378.028 365.296 408.133 377.726 440.354 C 378.95 443.528 381.318 449.586 382.987 453.817 C 384.657 458.049 387.959 467.969 390.326 475.864 C 394.82 490.859 396.248 490.877 398.632 475.964 C 400.075 466.939 414.29 430.808 418.318 425.93 C 419.628 424.343 423.03 419.018 425.878 414.096 C 433.512 400.904 453.046 384.274 465.425 380.426 C 474.154 377.714 476.93 377.607 484.486 379.692 C 497.904 383.397 510.932 398.36 517.824 417.983 L 520.226 424.824 L 523.877 419.126 C 533.93 403.435 549.044 385.404 557.384 379.155 C 562.512 375.311 567.716 371.329 568.949 370.305 C 570.181 369.281 576.761 366.131 583.573 363.305 C 607.292 353.463 631.954 356.931 643.394 371.717 C 647.831 377.451 648.755 380.803 649.329 393.243 C 649.931 406.307 649.302 409.65 643.785 422.714 C 640.363 430.818 635.475 440.483 632.922 444.191 C 630.37 447.899 629.09 450.933 630.078 450.933 C 632.652 450.933 667.562 432.637 680.574 424.469 C 706.616 408.122 733.982 384.19 748.182 365.346 C 751.371 361.114 754.499 357.219 755.134 356.691 C 758.221 354.119 771.25 328.63 775.907 316.05 C 780.694 303.122 781.158 299.424 781.184 273.988 C 781.217 242.093 778.996 233.408 763.578 205.16 C 754.575 188.664 751.59 184.74 733.516 165.633 C 698.558 128.679 638.539 94.671 575.487 76.094 C 537.71 64.963 536.467 64.712 536.467 68.195 C 536.467 69.253 537.333 70.118 538.39 70.118 C 540.153 70.118 543.398 75.582 558.264 103.576 C 568.284 122.443 572.167 138.445 572.344 161.587 C 572.492 180.933 571.981 184.145 566.681 197.126 C 559.143 215.588 545.635 229.453 529.307 235.488 C 515.759 240.495 506.919 239.698 494.142 232.316 C 485.686 227.431 471.977 211.483 469.62 203.788 C 468.972 201.672 467.075 196.275 465.405 191.793 C 463.734 187.312 461.882 177.792 461.287 170.637 C 460.692 163.483 458.893 146.826 457.288 133.621 C 455.685 120.417 453.983 103.54 453.505 96.117 C 453.028 88.693 452.074 78.868 451.385 74.283 L 450.132 65.946 L 444.526 71.997 C 441.441 75.326 438.919 78.861 438.919 79.854 C 438.919 80.847 438.16 81.658 437.233 81.658 C 436.306 81.658 433.114 85.12 430.139 89.351 L 424.732 97.045 L 395 97.045 L 365.269 97.045 L 353.108 81.547 C 346.418 73.022 340.508 66.481 339.972 67.01 C 339.435 67.537 338.671 72.565 338.273 78.18 C 337.875 83.795 336.18 99.522 334.505 113.128 C 332.831 126.735 331.049 144.045 330.544 151.595 C 327.98 189.985 320.877 209.989 304.337 225.396 C 295.938 233.22 282.707 239.359 274.201 239.379 C 266.014 239.398 250.733 232.417 241.963 224.653 C 220.631 205.765 212.952 175.971 219.237 136.472 C 221.523 122.105 239.206 84.458 248.076 75.072 C 250.027 73.007 251.625 70.614 251.625 69.756 C 251.625 68.897 251.844 67.633 252.112 66.944 C 253.147 64.293 244.335 65.059 234.066 68.513 L 234.066 68.513"/>
    <path style="fill: rgb(216, 216, 216);" transform="matrix(-0.822723, 0.781573, -0.740447, -0.86842, 1286.341553, 339.917511)" d="M 520.279 437.219 A 10.763 10.763 0 1 1 520.279 447.982 A 7.876 7.876 0 1 0 520.279 437.219 Z" bx:shape="crescent 529.6 442.6 10.763 300 0.7 1@041a2d48"/>
  </g>
</svg>